<?xml version="1.0" encoding="UTF-8" standalone="no"?>
<!-- Created with Inkscape (http://www.inkscape.org/) -->

<svg
   width="90.344452mm"
   height="89.560997mm"
   viewBox="0 0 90.344452 89.560997"
   version="1.1"
   id="svg5"
   xml:space="preserve"
   inkscape:version="1.2.2 (732a01da63, 2022-12-09)"
   sodipodi:docname="Logo.svg"
   xmlns:inkscape="http://www.inkscape.org/namespaces/inkscape"
   xmlns:sodipodi="http://sodipodi.sourceforge.net/DTD/sodipodi-0.dtd"
   xmlns="http://www.w3.org/2000/svg"
   xmlns:svg="http://www.w3.org/2000/svg"><sodipodi:namedview
     id="namedview7"
     pagecolor="#ffffff"
     bordercolor="#000000"
     borderopacity="0.25"
     inkscape:showpageshadow="2"
     inkscape:pageopacity="0.0"
     inkscape:pagecheckerboard="0"
     inkscape:deskcolor="#d1d1d1"
     inkscape:document-units="mm"
     showgrid="false"
     inkscape:zoom="1.5760803"
     inkscape:cx="-136.41437"
     inkscape:cy="271.87701"
     inkscape:window-width="3840"
     inkscape:window-height="2054"
     inkscape:window-x="-11"
     inkscape:window-y="-11"
     inkscape:window-maximized="1"
     inkscape:current-layer="layer1" /><defs
     id="defs2" /><g
     inkscape:label="Ebene 1"
     inkscape:groupmode="layer"
     id="layer1"
     transform="translate(-55.964497,-67.565858)"><path
       id="path973"
       style="fill:#fe0000;fill-opacity:1;stroke:#000000;stroke-width:0.730793;stroke-linecap:round;stroke-linejoin:round;stroke-opacity:1"
       d="M 101.13698,67.931254 C 78.200107,67.948547 58.924293,85.167549 56.329895,107.95723 h 27.714587 c 2.254109,-7.56222 9.201489,-12.750702 17.092498,-12.765108 7.89082,0.01463 14.83793,5.203068 17.09198,12.765108 h 27.71459 C 143.34917,85.167745 124.07366,67.948809 101.13698,67.931254 Z"
       sodipodi:nodetypes="ccccccc" /><path
       d="m 56.329889,116.73495 c 2.594151,22.7899 21.870032,40.00919 44.807081,40.02651 22.93687,-0.0176 42.21246,-17.2368 44.80659,-40.02651 h -27.68153 c -2.25737,7.57396 -9.22186,12.76554 -17.12506,12.76563 -7.891342,-0.0142 -14.839038,-5.20301 -17.093012,-12.76563 z"
       style="fill:#ffffff;fill-opacity:1;stroke:#000000;stroke-width:0.730793;stroke-linecap:round;stroke-linejoin:round;stroke-opacity:1"
       id="path5889" /><ellipse
       style="fill:#fefffe;fill-opacity:1;stroke:#000000;stroke-width:0.581325;stroke-linecap:round;stroke-linejoin:round;stroke-opacity:1"
       id="path5956"
       cx="101.13672"
       cy="112.19329"
       rx="12.07952"
       ry="12.212985" /><text
       xml:space="preserve"
       style="font-style:normal;font-variant:normal;font-weight:normal;font-stretch:normal;font-size:5.64444px;font-family:Arial;-inkscape-font-specification:Arial;fill:#ffffff;fill-opacity:1;stroke:#000000;stroke-width:1.12068;stroke-linecap:round;stroke-linejoin:round;stroke-opacity:1"
       x="90.527214"
       y="114.36491"
       id="text6012"><tspan
         sodipodi:role="line"
         id="tspan6010"
         style="font-style:normal;font-variant:normal;font-weight:900;font-stretch:normal;font-size:5.64444px;font-family:Arial;-inkscape-font-specification:'Arial Heavy';fill:#010002;fill-opacity:1;stroke:none;stroke-width:1.12068"
         x="90.527214"
         y="114.36491">CATCH</tspan></text><path
       style="fill:#000000;stroke-width:0.0627092"
       d="m 97.049264,151.72609 c -0.06228,-0.0223 -0.07839,-2.13311 -0.07839,-10.26916 0,-9.39995 0.0084,-10.24427 0.102013,-10.28021 0.285041,-0.10938 0.274244,-0.51427 0.274244,10.2842 0,9.63231 -0.0059,10.18344 -0.109742,10.23684 -0.06035,0.031 -0.145016,0.0438 -0.188128,0.0283 z m 0.841351,-1.81532 c -0.02299,-0.023 -0.0418,-3.83348 -0.0418,-8.46774 0,-7.4634 0.01084,-8.4301 0.09486,-8.46234 0.05218,-0.02 0.136833,-0.002 0.188129,0.041 0.08169,0.0678 0.09327,1.11364 0.09327,8.4289 0,6.41199 -0.01747,8.36897 -0.07525,8.42675 -0.08326,0.0833 -0.19497,0.0977 -0.259199,0.0334 z m -1.793501,-0.6402 c -0.08616,-0.16101 -0.08545,-15.84683 7.48e-4,-16.00786 0.07971,-0.14893 0.223995,-0.14903 0.303645,-1.8e-4 0.08735,0.16321 0.08952,15.84234 0.0022,16.00547 -0.0819,0.15303 -0.225423,0.15423 -0.306587,0.003 z m -13.41842,-0.24823 c -0.08691,-0.16238 -0.08973,-14.96614 -0.003,-15.1284 0.08223,-0.15363 0.225558,-0.15438 0.307315,-0.002 0.08128,0.15188 0.08164,14.88284 4.74e-4,15.0966 -0.06728,0.17695 -0.219076,0.19359 -0.304801,0.0334 z m 35.817196,0.0735 c -0.0621,-0.0251 -0.0784,-1.61348 -0.0784,-7.64756 0,-6.74036 0.011,-7.62013 0.0949,-7.65234 0.0522,-0.02 0.13684,-0.002 0.18813,0.041 0.0816,0.0677 0.0933,1.01995 0.0933,7.61367 0,8.02687 0.01,7.76948 -0.29787,7.64524 z m -19.724698,-0.49929 c -0.02445,-0.0244 -0.04445,-3.18709 -0.04445,-7.02808 0,-6.17594 0.01097,-6.98783 0.09486,-7.02002 0.05218,-0.02 0.136954,-0.002 0.1884,0.0412 0.08206,0.0681 0.09158,0.9327 0.07759,7.04615 -0.01594,6.9616 -0.01608,6.96854 -0.143949,6.98684 -0.0704,0.0101 -0.148002,-0.002 -0.172451,-0.0262 z m 12.526348,-0.35278 c -0.0164,-0.0431 -0.0226,-3.12607 -0.0137,-6.851 l 0.0161,-6.77262 h 0.15677 0.15677 l 0.0172,6.7099 c 0.009,3.69046 0.002,6.77341 -0.0169,6.85101 -0.037,0.15321 -0.26466,0.19834 -0.31632,0.0627 z m -27.71761,-1.00335 c -0.01646,-0.0431 -0.0226,-2.67418 -0.01372,-5.8468 0.01567,-5.58914 0.01986,-5.76912 0.134082,-5.79111 0.06484,-0.0125 0.142018,0.0154 0.171488,0.0619 0.08935,0.14099 0.07,11.48946 -0.01976,11.5792 -0.0978,0.0978 -0.234234,0.0962 -0.272119,-0.003 z M 81.809551,146.681 c -0.05977,-0.0598 -0.07708,-1.27722 -0.07708,-5.41852 0,-4.65111 0.01207,-5.35144 0.09326,-5.41884 0.0513,-0.0425 0.136112,-0.0609 0.188474,-0.0409 0.0843,0.0324 0.09338,0.66006 0.07919,5.47756 -0.01417,4.81129 -0.02704,5.44314 -0.111392,5.45939 -0.05245,0.01 -0.13006,-0.0163 -0.172451,-0.0587 z m 35.771809,0.0316 c -0.023,-0.023 -0.0418,-2.47895 -0.0418,-5.45768 0,-4.77653 0.0112,-5.42018 0.0949,-5.45229 0.0522,-0.02 0.13684,-0.002 0.18813,0.0411 0.0812,0.0674 0.0933,0.76773 0.0933,5.41884 0,4.07084 -0.0179,5.35934 -0.0752,5.41669 -0.0833,0.0833 -0.19497,0.0977 -0.2592,0.0334 z m -27.717569,-0.25083 c -0.023,-0.023 -0.0418,-2.28142 -0.0418,-5.01872 0,-4.38471 0.01128,-4.98126 0.09486,-5.01333 0.05217,-0.02 0.136835,-0.002 0.18813,0.041 0.08109,0.0673 0.09326,0.71728 0.09326,4.97987 0,3.72943 -0.01801,4.92048 -0.07525,4.97773 -0.08326,0.0833 -0.194965,0.0977 -0.259197,0.0334 z m 14.297749,0 c -0.023,-0.023 -0.0418,-2.28142 -0.0418,-5.01872 0,-4.38471 0.0113,-4.98126 0.0949,-5.01333 0.0522,-0.02 0.13684,-0.002 0.18814,0.041 0.0811,0.0673 0.0933,0.71728 0.0933,4.97987 0,3.72943 -0.018,4.92048 -0.0752,4.97773 -0.0833,0.0833 -0.19497,0.0977 -0.25919,0.0334 z m 8.02946,0.003 c -0.0244,-0.0244 -0.0445,-2.27973 -0.0445,-5.01173 0,-4.33885 0.0119,-4.97714 0.0941,-5.04534 0.0751,-0.0623 0.11314,-0.0622 0.18851,2.5e-4 0.0829,0.0688 0.0925,0.68771 0.0784,5.07146 -0.016,4.97284 -0.0166,4.99316 -0.14405,5.01141 -0.0704,0.0101 -0.14801,-0.002 -0.17245,-0.0262 z m -27.733197,-0.54091 c -0.01646,-0.0431 -0.02265,-2.02513 -0.01372,-4.40449 0.01567,-4.17743 0.02031,-4.32687 0.134136,-4.34879 0.06485,-0.0125 0.142023,0.0154 0.171492,0.0619 0.0601,0.0948 0.07704,8.51532 0.01746,8.67063 -0.0452,0.11782 -0.266615,0.13271 -0.309365,0.0208 z m 25.948147,-4.63964 c 0.0156,-4.49973 0.02,-4.65609 0.13399,-4.67804 0.0649,-0.0125 0.14202,0.0154 0.1715,0.0619 0.0601,0.0948 0.0771,9.01694 0.0175,9.1723 -0.0209,0.0546 -0.10578,0.0992 -0.18853,0.0992 h -0.15047 z m 2.69378,3.89026 c -0.0568,-0.0568 -0.0752,-0.94172 -0.0752,-3.59811 0,-3.05493 0.0125,-3.53324 0.0941,-3.60093 0.0751,-0.0623 0.11308,-0.0623 0.18813,0 0.0816,0.0677 0.0941,0.546 0.0941,3.60093 0,3.45644 -0.0111,3.67337 -0.18812,3.67337 -0.0207,0 -0.0715,-0.0339 -0.11289,-0.0753 z m -22.371066,-0.56752 c -0.01651,-0.0431 -0.0227,-1.48896 -0.01372,-3.213 0.01567,-3.01123 0.02095,-3.13553 0.134226,-3.15733 0.06484,-0.0125 0.142018,0.0154 0.171487,0.0619 0.06016,0.0949 0.07692,6.13267 0.01746,6.28766 -0.0452,0.11783 -0.26658,0.13271 -0.309445,0.0208 z m 14.299436,0.004 c -0.0175,-0.0456 -0.0244,-1.49375 -0.0154,-3.21825 l 0.0163,-3.13547 h 0.15678 0.15677 v 3.19818 3.19817 l -0.14137,0.0201 c -0.0777,0.011 -0.15565,-0.0171 -0.1731,-0.0627 z m 14.29776,0 c -0.0175,-0.0456 -0.0243,-1.49375 -0.0154,-3.21825 l 0.0163,-3.13547 h 0.15677 0.15677 v 3.19818 3.19817 l -0.14137,0.0201 c -0.0778,0.011 -0.15565,-0.0171 -0.1731,-0.0627 z m -38.396072,-0.0639 c -0.05638,-0.0564 -0.07525,-0.80934 -0.07525,-3.00237 0,-2.51425 0.01317,-2.93805 0.09327,-3.00453 0.05129,-0.0426 0.135952,-0.061 0.188126,-0.0411 0.08285,0.0318 0.09486,0.41693 0.09486,3.04171 0,2.68261 -0.01063,3.0094 -0.09919,3.04338 -0.126293,0.0484 -0.113871,0.0507 -0.20181,-0.0372 z m 4.455507,0.0337 c -0.06118,-0.0247 -0.07839,-0.69167 -0.07839,-3.03843 0,-2.62611 0.01202,-3.0114 0.09486,-3.04319 0.05217,-0.02 0.13683,-0.002 0.18813,0.041 0.08011,0.0665 0.09326,0.49028 0.09326,3.00452 0,3.12668 -0.003,3.15516 -0.297866,3.0361 z m 2.693366,-0.0337 c -0.05638,-0.0564 -0.07524,-0.80934 -0.07524,-3.00237 0,-2.51425 0.01317,-2.93805 0.09326,-3.00453 0.05129,-0.0426 0.135957,-0.061 0.188131,-0.0411 0.08285,0.0318 0.09486,0.41693 0.09486,3.04171 0,2.68261 -0.01063,3.0094 -0.09919,3.04338 -0.126293,0.0484 -0.113871,0.0507 -0.201814,-0.0372 z m 4.446892,-0.0103 c -0.05118,-0.0617 -0.06646,-0.91512 -0.05471,-3.05708 l 0.01631,-2.97153 h 0.15677 0.156775 l 0.01631,2.97153 c 0.01592,2.90482 0.003,3.14264 -0.173075,3.14264 -0.02604,0 -0.0793,-0.0385 -0.118355,-0.0856 z m 2.703817,0.0121 c -0.05877,-0.0588 -0.07708,-0.77255 -0.07708,-3.0042 0,-2.51425 0.01316,-2.93804 0.09327,-3.00452 0.05129,-0.0426 0.136225,-0.061 0.188731,-0.0407 0.08397,0.0322 0.09351,0.40106 0.07918,3.06325 -0.01426,2.65031 -0.02813,3.0289 -0.11165,3.04497 -0.05245,0.0101 -0.130055,-0.0163 -0.172451,-0.0587 z m 4.445057,-0.0121 c -0.05118,-0.0617 -0.06646,-0.91512 -0.05471,-3.05708 l 0.0163,-2.97153 h 0.156773 0.156774 l 0.01629,2.97153 c 0.01593,2.90482 0.0028,3.14264 -0.173071,3.14264 -0.02604,0 -0.07931,-0.0385 -0.11836,-0.0856 z m 9.836773,-0.0753 c -0.0853,-0.22433 -0.0818,-5.70355 0.004,-5.86338 0.0822,-0.15356 0.22573,-0.15583 0.30654,-0.005 0.0809,0.15119 0.0845,5.66266 0.004,5.87486 -0.0763,0.20063 -0.23661,0.19724 -0.31413,-0.007 z m 4.46646,0.0856 c -0.0564,-0.0564 -0.0752,-0.80934 -0.0752,-3.00238 0,-2.51425 0.0131,-2.93805 0.0933,-3.00453 0.0513,-0.0426 0.13596,-0.061 0.18814,-0.041 0.0828,0.0318 0.0948,0.41693 0.0948,3.04171 0,2.6826 -0.0106,3.0094 -0.0992,3.04338 -0.12631,0.0484 -0.11388,0.0507 -0.20182,-0.0372 z m 2.72577,0.0334 c -0.023,-0.023 -0.0418,-1.39252 -0.0418,-3.04338 0,-2.62145 0.012,-3.00618 0.0949,-3.03797 0.0522,-0.0201 0.13684,-0.002 0.18813,0.041 0.0801,0.0665 0.0933,0.485 0.0933,2.95849 0,1.86607 -0.0229,2.9238 -0.065,3.00237 -0.0649,0.12123 -0.19069,0.15834 -0.26955,0.0795 z m -27.745005,-0.53301 c -0.05859,-0.0586 -0.07708,-0.72668 -0.07708,-2.78473 0,-2.31998 0.01337,-2.71872 0.09326,-2.78504 0.05129,-0.0426 0.136246,-0.0609 0.188775,-0.0408 0.08391,0.0322 0.09353,0.37753 0.07919,2.84378 -0.01427,2.45384 -0.02833,2.80942 -0.111695,2.82547 -0.05245,0.0101 -0.130056,-0.0163 -0.172451,-0.0587 z m 14.325185,0.0316 c -0.023,-0.023 -0.0418,-1.29374 -0.0418,-2.82389 0,-2.42553 0.0121,-2.78676 0.0949,-2.81849 0.0522,-0.02 0.13683,-0.002 0.18813,0.041 0.0799,0.0663 0.0933,0.46507 0.0933,2.78504 0,2.73403 -0.01,2.85814 -0.22157,2.85814 -0.0391,0 -0.0899,-0.0188 -0.11288,-0.0418 z m -17.068769,-0.78568 c -0.01766,-0.0461 -0.0246,-0.83113 -0.01542,-1.74458 l 0.01676,-1.66082 h 0.156775 0.156771 v 1.72451 1.72451 l -0.141375,0.0201 c -0.07775,0.011 -0.155842,-0.0176 -0.173523,-0.0637 z m 5.393032,5e-5 c -0.01766,-0.0461 -0.0246,-0.84522 -0.01542,-1.77594 l 0.01671,-1.69222 h 0.156776 0.156775 v 1.75586 1.75587 l -0.14138,0.0201 c -0.07775,0.011 -0.155833,-0.0176 -0.173503,-0.0636 z m 1.755847,-5e-5 c -0.01766,-0.0461 -0.0246,-0.83113 -0.01542,-1.74458 l 0.01676,-1.66082 h 0.15677 0.156776 v 1.72451 1.72451 l -0.141375,0.0201 c -0.07776,0.011 -0.155843,-0.0176 -0.173523,-0.0637 z m 7.16332,0.0358 c -0.0637,-0.0637 -0.0532,-3.29895 0.011,-3.40035 0.0295,-0.0465 0.10665,-0.0743 0.1715,-0.0619 0.11198,0.0216 0.1179,0.10919 0.1179,1.74637 0,1.68744 -0.003,1.72403 -0.128,1.74197 -0.0704,0.01 -0.148,-0.002 -0.17245,-0.0262 z m 5.37858,-0.0358 c -0.0176,-0.0461 -0.0246,-0.84522 -0.0154,-1.77594 l 0.0167,-1.69222 h 0.15677 0.15677 v 1.75587 1.75586 l -0.14137,0.0201 c -0.0777,0.011 -0.15583,-0.0176 -0.1735,-0.0636 z m 1.7703,0.0358 c -0.0244,-0.0244 -0.0445,-0.7841 -0.0445,-1.68812 0,-1.37829 0.0151,-1.65616 0.0933,-1.72108 0.0513,-0.0426 0.13642,-0.0609 0.18914,-0.0406 0.0834,0.0319 0.0937,0.26009 0.0792,1.7472 -0.0162,1.66781 -0.0199,1.71087 -0.14468,1.72874 -0.0704,0.01 -0.14801,-0.002 -0.17246,-0.0262 z m 7.14376,-0.0567 c -0.0217,-0.0564 -0.0394,-0.81633 -0.0394,-1.68879 0,-1.32749 0.0152,-1.59891 0.0933,-1.66368 0.0512,-0.0426 0.1364,-0.0609 0.18914,-0.0406 0.0833,0.0319 0.0937,0.26008 0.0792,1.74719 -0.0166,1.68955 -0.0183,1.71065 -0.1498,1.72941 -0.0785,0.0112 -0.14925,-0.0231 -0.17245,-0.0835 z m 5.3837,0.021 c -0.0176,-0.0461 -0.0246,-0.84523 -0.0154,-1.77594 l 0.0167,-1.69223 h 0.15677 0.15677 v 1.75587 1.75586 l -0.14137,0.0201 c -0.0778,0.011 -0.15584,-0.0176 -0.17351,-0.0636 z m -40.151525,-0.4393 c -0.05356,-0.0536 -0.07525,-0.44026 -0.07525,-1.34154 0,-1.1116 0.01247,-1.27108 0.102013,-1.30544 0.244903,-0.094 0.274243,0.0492 0.274243,1.33776 0,1.17365 -0.02863,1.38447 -0.188125,1.38447 -0.0207,0 -0.07149,-0.0339 -0.112878,-0.0752 z m 7.148878,0 c -0.05343,-0.0534 -0.07525,-0.43307 -0.07525,-1.30922 0,-1.02036 0.01626,-1.24748 0.09407,-1.31203 0.07504,-0.0623 0.113077,-0.0623 0.188125,0 0.07779,0.0645 0.09407,0.29167 0.09407,1.31203 0,1.17365 -0.02864,1.38447 -0.188131,1.38447 -0.0207,0 -0.07148,-0.0339 -0.112873,-0.0752 z m 7.148874,0 c -0.05342,-0.0534 -0.07525,-0.43307 -0.07525,-1.30922 0,-1.28862 0.02934,-1.43174 0.274248,-1.33776 0.08955,0.0344 0.102012,0.19384 0.102012,1.30544 0,1.20571 -0.02804,1.41679 -0.18813,1.41679 -0.0207,0 -0.07149,-0.0339 -0.112877,-0.0752 z m 7.148883,0 c -0.0534,-0.0534 -0.0752,-0.43307 -0.0752,-1.30922 0,-1.28862 0.0293,-1.43174 0.27424,-1.33776 0.0896,0.0344 0.10201,0.19384 0.10201,1.30544 0,1.20571 -0.028,1.41679 -0.18813,1.41679 -0.0207,0 -0.0715,-0.0339 -0.11287,-0.0752 z m 7.17957,0.003 c -0.0939,-0.0526 -0.10596,-0.20065 -0.10596,-1.3027 0,-1.29854 0.029,-1.44127 0.27425,-1.34719 0.0897,0.0344 0.10201,0.19669 0.10201,1.34263 0,1.36308 -0.0176,1.44863 -0.2703,1.30725 z m 7.14888,0 c -0.0939,-0.0526 -0.10596,-0.20065 -0.10596,-1.3027 0,-1.024 0.0165,-1.25705 0.0933,-1.3208 0.0513,-0.0425 0.13595,-0.061 0.18813,-0.041 0.0805,0.0308 0.0949,0.23514 0.0949,1.34856 0,1.37222 -0.0175,1.45741 -0.2703,1.31593 z m 6.14162,-0.27436 c -0.0216,-0.0564 -0.0393,-0.52004 -0.0393,-1.03035 0,-0.74471 0.0184,-0.94312 0.0933,-1.00524 0.0513,-0.0426 0.13663,-0.0608 0.18965,-0.0404 0.0823,0.0316 0.0939,0.18982 0.0792,1.08875 -0.0166,1.01797 -0.0215,1.05238 -0.15031,1.07077 -0.0785,0.0112 -0.14925,-0.0231 -0.17245,-0.0835 z m -19.59031,-0.66735 c -0.0424,-0.0424 -0.0771,-0.20908 -0.0771,-0.37042 0,-0.31303 0.1131,-0.4763 0.2844,-0.41057 0.13813,0.053 0.10657,0.81303 -0.0349,0.83993 -0.0524,0.01 -0.13005,-0.0166 -0.17244,-0.0589 z m 4.44445,-0.0129 c -0.045,-0.0542 -0.0682,-0.22849 -0.0569,-0.42598 0.0177,-0.30969 0.0307,-0.33431 0.1759,-0.33431 0.15111,0 0.15678,0.0146 0.15678,0.40675 0,0.32215 -0.0207,0.41075 -0.0998,0.42598 -0.0549,0.0105 -0.13407,-0.022 -0.1759,-0.0725 z m 14.30567,0.0129 c -0.0875,-0.0875 -0.10273,-0.60423 -0.0216,-0.7323 0.0295,-0.0465 0.10665,-0.0743 0.17149,-0.0619 0.10092,0.0195 0.11791,0.0812 0.11791,0.4286 0,0.3134 -0.0217,0.41009 -0.0954,0.42426 -0.0524,0.0101 -0.13005,-0.0163 -0.17244,-0.0587 z"
       id="path8376"
       sodipodi:nodetypes="ssssssssccssscccscccsccccssccsscsscssccccccccccscscssssssssssssccsssssscsssssccssscssccsccscscssscscssccsssssssssssssscscccccscccscccccsccsssssssssscssssssssssscccsssssssssssscccsssccscccsssssssssscssssssssssssccssssccccccssssscccccssssscccccsssssssssscccccccscccssscscsssscsscccccccsccssssssssssssssssssssssssssssssssssssssssssccssssssssssssssssssss" /></g></svg>
